# xmcd CD database file
#
# Track frame offsets:
#	150
#	18302
#	43620
#
# Disc length: 934 seconds
#
# Revision: 0
# Processed by: cddbd v1.5PL3 Copyright (c) Steve Scherf et al.
# Submitted via: CDex 1.51
#
DISCID=1a03a403
DTITLE=Gregorian - I Still Haven´t Found What I´m Looking For
DYEAR=2000
DGENRE=New Age
TTITLE0=I Still Haven´t Found What I´m Looking For (Radio Edit)
TTITLE1=I Still Haven´t Found What I´m Looking For (Long Version)
TTITLE2=Loosing My Religion
EXTD=YEAR: 2000
EXTT0=
EXTT1=
EXTT2=
PLAYORDER=
